<?xml version="1.0" encoding="utf-8"?>
<!-- Generator: Adobe Illustrator 21.1.0, SVG Export Plug-In . SVG Version: 6.00 Build 0)  -->
<svg version="1.1" id="Capa_1" xmlns="http://www.w3.org/2000/svg" xmlns:xlink="http://www.w3.org/1999/xlink" x="0px" y="0px"
	 viewBox="0 0 317.1 452.5" style="enable-background:new 0 0 317.1 452.5;" xml:space="preserve">
<style type="text/css">
	.st0{fill:#FFFFFF;}
</style>
<title>Recurso 3</title>
<g id="Capa_2">
	<g id="Capa_6">
		<path class="st0" d="M316.7,422.4c-1.1-6.2-2.4-12.3-3.6-18.5L300.2,338c-1.3-6.8-2.6-13.5-4-20.3c-2.6-12.8-11.6-19.4-23.7-22.5
			c-17-4.3-33.9-8.7-50.8-13.4c-5.2-1.5-10.6-2.7-15.6-4.7h-0.1c-1-0.5-1.9-1-2.8-1.5c-2.4-1.4-4.4-3.4-5.8-5.7
			c-0.5-1-1-2.1-1.3-3.3c13.3,0.3,26.7,0.2,40-0.2c6.9-0.2,14-0.2,20.8-1.1s11.2-5.1,12.2-12c0.8-5.6,0.3-11.5,0.4-17.1
			c0.1-6.3,0.1-12.6,0.2-18.9c0.2-14.3,0.5-28.5,0.8-42.8c0.5-25.5,0.5-51,1.1-76.4s-1.1-53.2-23.7-69.7c-6-4.4-13-7.2-20.3-8.2
			c-7.7-1.1-15.5,1.5-22.6-2.5c-13-7.4-25.5-13.6-40.4-16.1c-29-5-58.6,2.4-81.4,21.3c-23.3,19.4-35.2,47.7-37,77.5
			c-1.3,21.6-0.5,43.5-0.4,65.1c0.2,24.7,0.4,49.4,0.7,74.1c0,5.5-0.4,11.2,1.8,16.4c2.3,5.4,6.8,9.6,12.3,11.5
			c6.3,2.2,13.7,1.2,20.3,1.1s13.2,0,19.7,0c2.1,0,4.3,0,6.4,0c0.7,0,4.6,0.4,2.4-0.1c5.7,1.1,8.1-7.5,2.4-8.7
			c-2.6-0.5-5.3-0.3-7.9-0.3c-5.7,0-11.3,0-17,0c-10,0-29.4,3.9-31.3-10.4c-0.6-4.8-0.1-9.9-0.2-14.7c-0.1-5.4-0.1-10.8-0.2-16.2
			c-0.1-11.8-0.2-23.7-0.3-35.5c-0.2-18.3-0.4-36.7-0.3-55c0.1-13.5-0.3-27.3,1.9-40.7c2.3-14.2,7.8-27.8,16.1-39.6
			C88.4,24.6,114,10.4,141.9,9c13.9-0.6,27.9,1.7,40.8,6.9c6.3,2.5,11.8,6.1,17.7,9.4c6.2,3.5,12.4,3.8,19.2,3.4
			c15.3-0.9,28.3,8.6,35.6,21.4c6,10.5,7.6,22.6,7.6,34.6c0.1,21.8-0.5,43.6-0.9,65.4c-0.5,26.1-1,52.1-1.4,78.2
			c-0.1,5.5-0.1,10.9-0.1,16.4c0,2.5,0.3,5.1-0.2,7.6c-0.8,4.4-4.4,4.1-8.1,4.4c-13.8,0.8-27.7,1.1-41.6,1.1
			c-5.2,0-10.3-0.1-15.5-0.2c0-1.5,0-3,0-4.5c0-0.9-0.2-1.8-0.7-2.5c13.4-4.5,25.4-12.5,34.8-23.1c9.2-10.5,13.8-23.8,15.9-37.4
			c2.6-16.5,3.4-33.4,3.4-50c0-5.8-9-5.8-9,0c0,13.7-0.7,27.5-2.2,41.1c-1.3,11.2-3.5,23-9.3,32.8c-14.3,24.3-44,33.8-70.7,32.9
			c-26.9-1-56.8-11-69-37c-6.6-14-11.5-32.2-9.6-47.8c0.4-3.3,0.8-9,4.2-10.2s8.1-1.1,11.8-1.6c8.1-1.1,16.2-2.4,24.2-4.1
			c17.2-3.8,33.5-10.2,48-20.2c13-9,24.5-19.8,35.7-30.9c8.8,11.6,21.1,20.1,35,24.4c5.6,1.7,7.9-7,2.4-8.7
			c-13.6-4.1-25.2-13-32.9-24.9c-1.3-2.2-4.1-2.8-6.3-1.5c-0.3,0.2-0.6,0.4-0.8,0.6c-12.3,12.2-24.7,24.5-39.1,34.2
			c-15.1,10.2-32,16-49.8,19.4c-9.1,1.8-18.3,2.9-27.6,4.1c-7.9,1-11.1,5.3-12.9,12.9c-3.8,16.9,0.8,35.4,6.7,51.3
			c5.4,14.4,14.4,26.1,27.5,34.3c5.2,3.3,10.8,5.9,16.6,8V262c0,3.9,1.1,10.3-2.1,13.2c-2.2,2-6.2,2.2-9,2.8s-5.9,1.4-8.9,2.1
			l-5.7,1.4c-0.6,0-1.2,0.2-1.8,0.5c-13.2,3.3-26.4,6.8-39.5,10.3c-7,1.9-15.1,3-21.3,7.1c-6.1,4-10.4,10.2-12,17.3
			c-1.2,5-2.1,10-3.1,15l-13.4,65c-1.4,6.8-2.9,13.6-4.2,20.5c-2.3,11.6,1.1,23.2,11.2,30.1c9.3,6.3,21.3,4.8,31.9,4.8H73
			c5.8,0,5.8-9,0-9H49.7c-7.8,0-15.9,0.6-23.8,0c-12.2-0.9-18.7-12.4-16.5-23.7c1.4-6.8,2.8-13.5,4.2-20.2l13.1-63.5
			c1.1-5.4,2.1-10.8,3.3-16.2c3.4-15,19-16.2,31.6-19.6c10.9-2.9,21.8-5.8,32.7-8.5c12.7,17.5,33.7,32.8,54.9,36.6
			c13.6,2.4,26.8-0.5,39.4-5.6c11.7-4.7,23-10.9,31.2-20.8c3.7-4.4-2.6-10.8-6.4-6.4c-7.2,8.6-16.9,14.3-27.2,18.4
			c-11.6,4.7-23.8,7.9-36.3,5.3c-17.4-3.6-34.9-15.7-46.2-30c2.2-0.5,4.4-1.1,6.6-1.6c7.5-1.8,15-2.7,18.6-10.5
			c2-4.2,1.6-8.8,1.6-13.4v-11.5c4.9,1.3,9.9,2.2,15,2.9c13.5,1.9,27.3,1.2,40.6-1.9c0,0,0,0.1,0,0.1c0,8.4,0.1,17.9,5.8,24.7
			c3.7,4.2,8.6,7.3,14,8.9c12.3,4.1,24.9,7.1,37.4,10.4c7.4,1.9,14.8,3.9,22.2,5.8c7.6,2,15.6,3.2,19.8,10.8
			c2.5,4.5,2.9,10.6,3.9,15.5l12.1,61.9l5.3,27c1.3,6.5,3.1,12.9-1.1,18.8c-6.3,8.9-19.7,6.4-29.1,6.4h-28.6c-5.8,0-5.8,9,0,9H273
			c8.4,0,18.4,1.4,26.6-0.9C312.4,447.7,319,435,316.7,422.4z"/>
	</g>
</g>
</svg>
