<?xml version="1.0" encoding="utf-8"?>
<!-- Generator: Adobe Illustrator 21.1.0, SVG Export Plug-In . SVG Version: 6.00 Build 0)  -->
<svg version="1.1" id="Capa_1" xmlns="http://www.w3.org/2000/svg" xmlns:xlink="http://www.w3.org/1999/xlink" x="0px" y="0px"
	 viewBox="0 0 63.1 63.1" style="enable-background:new 0 0 63.1 63.1;" xml:space="preserve">
<style type="text/css">
	.st0{fill:#C0B9BD;}
</style>
<title>icono_parche</title>
<g>
	<path class="st0" d="M31.6,63.1C14.2,63.1,0,49,0,31.6C0,14.2,14.2,0,31.6,0C49,0,63.1,14.2,63.1,31.6C63.1,49,49,63.1,31.6,63.1z
		 M31.6,2.9C15.8,2.9,2.9,15.8,2.9,31.6c0,15.8,12.9,28.7,28.7,28.7c15.8,0,28.7-12.9,28.7-28.7C60.2,15.8,47.4,2.9,31.6,2.9z"/>
</g>
<g>
	<path class="st0" d="M27.9,45.1h7.5c2.5,0,4.4-2.4,4.4-4V22.7c0-0.9-0.7-2.5-1.3-3.1c-0.6-0.7-1.9-1.4-3.1-1.4h-7.5
		c-2.5,0-4.5,2.4-4.5,5.4v16.2C23.4,42.7,25.4,45.1,27.9,45.1z M25.5,39.7V23.6c0-1.3,1-2.9,2.4-3h7.5c1.3,0,2.2,1.5,2.2,2.8l0,16.3
		c0,1.6-1.1,3.1-2.2,3.1h-7.6C26.7,42.8,25.5,41.3,25.5,39.7z"/>
	<path class="st0" d="M40.5,13.7H22.8c-3.5,0.1-5.8,2.4-5.8,5.9v23.8c0,3.1,2.4,5.4,5.8,5.5h17.6c3.3-0.1,5.7-2.5,5.6-5.5V19.7
		C46.2,16.5,43.7,13.8,40.5,13.7z M19.8,19.6c0-0.8,0.3-1.7,0.8-2.3c0.6-0.7,1.3-1.1,2-1.1c0.1,0,0.1,0,0.2,0h15.3
		c3.4,0,5.8,1.5,5.8,3.5v23.8l0,0.2c-0.2,1.7-1.7,2.9-3.4,2.8l-0.1,0H22.8c-1.6,0.1-3-1.2-3.1-2.8c0-0.1,0-0.1,0-0.2L19.8,19.6z"/>
</g>
<path class="st0" d="M38.1,19.1"/>
</svg>
