<?xml version="1.0" encoding="utf-8"?>
<!-- Generator: Adobe Illustrator 21.1.0, SVG Export Plug-In . SVG Version: 6.00 Build 0)  -->
<svg version="1.1" id="Capa_1" xmlns="http://www.w3.org/2000/svg" xmlns:xlink="http://www.w3.org/1999/xlink" x="0px" y="0px"
	 viewBox="0 0 400 400" style="enable-background:new 0 0 400 400;" xml:space="preserve">
<style type="text/css">
	.st0{fill:#C0B9BD;}
</style>
<title>icono_inyectable_1</title>
<g>
	<path class="st0" d="M275.6,61.9c-6-2.2-12.4-2-18.2,0.7c-5.8,2.7-10.2,7.4-12.4,13.4c-3.1,8.3-1.4,17.3,4.3,23.9l-19.4,31.8
		l-10.6-6.4c-12.1-7.4-26.1-5.7-31.9,3.7l-0.3,0.8c-0.5,1.9-0.3,4,0.7,5.7c1,1.7,2.6,3,4.5,3.5c2.5,0.7,5.1,0,7-1.7l0.6-0.7
		c0.6-0.9,3-1.7,6.5-1L126.9,266c-2.2,3.5-1.2,8.1,2.4,10.4l9,5.5l-27.6,45.4c-2.7,2.8-2.8,7.3-0.1,10.2c1.3,1.5,3.2,2.3,5.2,2.4
		c0.1,0,0.2,0,0.4,0c1.9,0,3.6-0.7,5-2c0.9-0.8,1.6-1.9,2-3.1l27.6-45.7l9,5.4c1.7,1.1,3.7,1.4,5.6,1c2-0.4,3.6-1.6,4.8-3.4
		l79.1-130.4c2.2,2.7,2.6,5.3,2.1,6.2l-0.3,0.8c-1.1,4,1.3,8.1,5.3,9.2c2.5,0.7,5.1,0,7-1.7l0.6-0.7c2.4-4,3.1-8.6,1.9-13.4
		c-1.6-6.4-6.3-12.4-13.1-16.5l-10.6-6.4l19.5-31.9c11.6,2.8,23.7-3.5,27.9-14.9C294.2,80.2,287.9,66.4,275.6,61.9z M155.7,247.6
		l9.3,5.6c2.8,2.7,7.3,2.8,10.2,0.1c1.5-1.3,2.3-3.2,2.4-5.2c0.1-2-0.6-3.9-1.9-5.4c-0.8-0.9-1.9-1.6-3.1-2.1l-9.3-5.6l15.2-24.7
		l9.3,5.7c1.3,1.3,3,2,4.8,2.1c1.9,0,3.9-0.6,5.4-1.9c3.1-2.8,3.3-7.5,0.5-10.6c-0.9-0.9-1.9-1.6-3.1-2l-9.3-5.6l15.2-24.7l9.3,5.7
		c1.3,1.3,3,2,4.8,2.1c2,0.1,3.9-0.6,5.4-1.9c3.1-2.8,3.3-7.5,0.5-10.6c-0.9-0.9-1.9-1.6-3.1-2l-9.3-5.6l11-18l18.1,11l-76.6,124.9
		l-18.1-11L155.7,247.6z M275.3,89c-1.3,2.1-3.3,3.6-5.7,4.2c-2.4,0.6-4.9,0.2-7-1.1c-4.3-2.6-5.7-8.3-3.1-12.6
		c1.7-2.9,4.8-4.4,7.9-4.4c1.6,0,3.3,0.4,4.7,1.3C276.5,78.9,277.9,84.6,275.3,89z"/>
	<path class="st0" d="M200,0C89.7,0,0,89.7,0,200c0,110.3,89.7,200,200,200s200-89.7,200-200C400,89.7,310.3,0,200,0z M200,381.6
		C99.9,381.6,18.4,300.1,18.4,200C18.4,99.9,99.9,18.4,200,18.4S381.6,99.9,381.6,200C381.6,300.1,300.1,381.6,200,381.6z"/>
</g>
</svg>
