<?xml version="1.0" encoding="utf-8"?>
<!-- Generator: Adobe Illustrator 21.1.0, SVG Export Plug-In . SVG Version: 6.00 Build 0)  -->
<svg version="1.1" id="Capa_1" xmlns="http://www.w3.org/2000/svg" xmlns:xlink="http://www.w3.org/1999/xlink" x="0px" y="0px"
	 viewBox="0 0 63.1 63.1" style="enable-background:new 0 0 63.1 63.1;" xml:space="preserve">
<style type="text/css">
	.st0{fill:#C0B9BD;}
	.st1{fill:#C0B9BD;stroke:#C0B9BD;stroke-miterlimit:10;}
</style>
<title>icono_anillo</title>
<path class="st0" d="M31.6,0C14.2,0,0,14.2,0,31.6C0,40,3.3,47.9,9.2,53.9c6,6,13.9,9.3,22.3,9.3h0c17.4,0,31.6-14.2,31.6-31.6
	C63.1,14.2,49,0,31.6,0z M31.6,2.9c15.8,0,28.6,12.9,28.6,28.6c0,15.8-12.8,28.6-28.6,28.6c-7.6,0-14.8-3-20.2-8.4
	c-5.4-5.4-8.4-12.6-8.4-20.2C2.9,15.8,15.8,2.9,31.6,2.9z"/>
<path class="st1" d="M35.5,10.9c-0.4-0.1-0.8-0.2-1.3-0.2c-1.4-0.1-2.5,0.9-2.6,2.3c0,0,0,0,0,0c-0.3,1.4,0.5,2.7,1.8,3.1
	c0.5,0.1,1.3,0.3,1.3,0.2c8.4,1.8,13.7,10,12,18.4c-1.8,8.4-10,13.7-18.4,12C21.1,45.2,16,38.9,16,31.5c-0.1-7.5,5.3-14,12.7-15.3
	l0.5-0.1l0.6-0.2c0,0,1.7-0.6,1.5-3.1c-0.1-1.3-1.2-2.3-2.5-2.2c-0.1,0-0.1,0-0.2,0c-0.4,0.1-0.8,0.2-1.3,0.3
	C16,13.4,8.7,24.5,11.1,35.8S24.6,54.4,35.9,52c11.3-2.4,18.6-13.5,16.2-24.8C50.4,18.9,43.8,12.5,35.5,10.9L35.5,10.9z M32.8,51
	L32.8,51c-0.4,0-0.9,0-1.3,0C20.8,51,12,42.3,12,31.5c0-9.7,7.1-17.9,16.6-19.3c0.1,0,0.2,0,0.3-0.1c0.4-0.1,0.8,0.1,1,0.6
	c0.2,0.5,0.2,1.1-0.2,1.5c-0.5,0.3-1.1,0.5-1.7,0.5c-0.3,0.1-0.5,0.1-0.7,0.2c-9.2,2.3-14.7,11.6-12.5,20.7s11.6,14.7,20.7,12.5
	c9.2-2.3,14.7-11.6,12.5-20.7c-1.6-6.3-6.6-11.2-13-12.6h-0.2c-0.6-0.1-1.2-0.2-1.8-0.5c-0.4-0.4-0.5-1-0.2-1.5
	c0.2-0.5,0.7-0.7,1.1-0.6c0.3,0,0.8,0.1,1.2,0.2h0.2l0,0l0.3,0.1c10.5,2.5,17,13,14.5,23.4C48.3,44.3,41.2,50.3,32.8,51L32.8,51z"/>
</svg>
