<?xml version="1.0" encoding="utf-8"?>
<!-- Generator: Adobe Illustrator 21.1.0, SVG Export Plug-In . SVG Version: 6.00 Build 0)  -->
<svg version="1.1" id="Capa_1" xmlns="http://www.w3.org/2000/svg" xmlns:xlink="http://www.w3.org/1999/xlink" x="0px" y="0px"
	 viewBox="0 0 63.1 63.1" style="enable-background:new 0 0 63.1 63.1;" xml:space="preserve">
<style type="text/css">
	.st0{fill:#C0B9BD;}
</style>
<title>icono_pastas</title>
<path class="st0" d="M31.6,0C31.6,0,31.6,0,31.6,0C14.2,0,0,14.2,0,31.6C0,49,14.2,63.1,31.6,63.1h0C49,63.1,63.1,49,63.1,31.6
	C63.1,14.2,49,0,31.6,0z M31.6,2.9c15.8,0,28.6,12.9,28.7,28.7c0,15.8-12.9,28.7-28.6,28.7c0,0,0,0,0,0c-7.7,0-14.8-3-20.3-8.4
	c-5.4-5.4-8.4-12.6-8.4-20.3c0-7.7,3-14.9,8.4-20.3C16.7,5.9,23.9,2.9,31.6,2.9z"/>
<path class="st0" d="M41.9,52.4H21.2c-2.2,0-4-1.8-4-4V14.7c0-2.2,1.8-4,4-4h20.6c2.2,0,4,1.8,4,4v33.8
	C45.9,50.7,44.1,52.4,41.9,52.4z M21.2,11.7c-1.7,0-3,1.3-3,3v33.8c0,1.7,1.3,3,3,3h20.6c1.7,0,3-1.3,3-3V14.7c0-1.7-1.3-3-3-3
	L21.2,11.7z M39.1,48.2c-1.1,0-1.9-0.8-1.9-1.9c0-1.1,0.8-1.9,1.9-1.9c1.1,0,1.9,0.8,1.9,1.9c0,0.9-0.6,1.6-1.4,1.9v0.1H39.1z
	 M39,47.2L39,47.2c0.6,0,0.9-0.4,0.9-0.9c0-0.5-0.4-0.8-0.9-0.8s-0.8,0.4-0.8,0.9C38.2,46.9,38.6,47.2,39,47.2z M28.6,48.2
	L28.6,48.2c-1-0.3-1.5-1.4-1.3-2.3s1.3-1.5,2.3-1.3s1.5,1.3,1.3,2.3c-0.2,0.8-0.9,1.3-1.8,1.3H28.6z M29.1,45.4
	c-0.5,0-0.9,0.4-0.9,0.9c0,0.5,0.4,0.9,0.9,0.9h0.1c0.4-0.1,0.8-0.4,0.8-0.9C30,45.8,29.6,45.4,29.1,45.4
	C29.1,45.4,29.1,45.4,29.1,45.4L29.1,45.4z M23.6,48.2L23.6,48.2c-1-0.3-1.5-1.4-1.3-2.3s1.3-1.5,2.3-1.3s1.5,1.3,1.3,2.3
	c-0.2,0.8-0.9,1.3-1.8,1.3H23.6z M24.1,45.4c-0.5,0-0.9,0.4-0.9,0.9c0,0.5,0.4,0.9,0.9,0.9h0.1c0.4-0.1,0.8-0.4,0.8-0.9
	C25,45.8,24.6,45.4,24.1,45.4C24.1,45.4,24.1,45.4,24.1,45.4L24.1,45.4z M34.1,48.2c-1,0-1.9-0.9-1.8-1.9c0-1,0.9-1.9,1.9-1.8
	c1,0,1.8,0.9,1.8,1.9C36,47.4,35.2,48.2,34.1,48.2C34.1,48.2,34.1,48.2,34.1,48.2L34.1,48.2z M34.1,45.5c-0.5,0-0.9,0.4-0.9,0.9
	c0,0.5,0.4,0.9,0.9,0.9c0.5,0,0.9-0.4,0.9-0.9C35,45.8,34.6,45.5,34.1,45.5L34.1,45.5z M39.1,43.6c-1.1,0-2-0.8-2-1.9
	c0-1.1,0.8-2,1.9-2c1.1,0,2,0.8,2,1.9c0,0.9-0.5,1.7-1.4,1.9v0.1L39.1,43.6z M38.9,42.6h0.2c0.4,0,0.8-0.4,0.7-0.9
	c0-0.4-0.4-0.8-0.9-0.7c-0.4,0-0.8,0.4-0.7,0.9C38.2,42.3,38.5,42.6,38.9,42.6z M34.1,43.6c-1.1,0-1.9-0.8-1.9-1.9
	c0-1.1,0.8-1.9,1.9-1.9c1.1,0,1.9,0.8,1.9,1.9c0,0.9-0.6,1.6-1.4,1.9v0.1H34.1z M34,42.6h0.1c0.5,0,0.8-0.4,0.8-0.9
	c0-0.5-0.4-0.8-0.9-0.8c-0.5,0-0.8,0.4-0.8,0.9C33.2,42.3,33.5,42.6,34,42.6z M29.1,43.6c-1,0-1.9-0.9-1.8-1.9c0-1,0.9-1.9,1.9-1.8
	c1,0,1.8,0.8,1.8,1.8C31,42.7,30.2,43.6,29.1,43.6L29.1,43.6L29.1,43.6z M29.1,40.9c-0.5,0-0.9,0.4-0.9,0.9c0,0.5,0.4,0.9,0.9,0.9
	c0.5,0,0.9-0.4,0.9-0.9C30,41.3,29.6,40.8,29.1,40.9C29.1,40.8,29.1,40.8,29.1,40.9L29.1,40.9z M24.1,43.6c-1,0-1.9-0.8-1.9-1.9
	c0-0.8,0.6-1.6,1.4-1.8v-0.1h0.5c1,0,1.9,0.8,1.9,1.9C26,42.7,25.1,43.6,24.1,43.6C24.1,43.6,24.1,43.6,24.1,43.6L24.1,43.6z
	 M24.1,40.8c-0.5,0-0.8,0.4-0.8,0.9c0,0.5,0.4,0.8,0.9,0.8s0.8-0.4,0.8-0.9c0-0.4-0.4-0.8-0.8-0.8H24.1z M28.6,38.7v-0.1
	c-0.9-0.3-1.4-1.3-1.1-2.2s1.3-1.4,2.2-1.1c0.9,0.3,1.4,1.3,1.1,2.2c-0.2,0.7-0.9,1.2-1.7,1.2L28.6,38.7z M29.1,35.9
	c-0.5,0-0.9,0.4-0.9,0.9c0,0.5,0.4,0.9,0.9,0.9c0,0,0,0,0,0h0.2c0.5-0.1,0.7-0.6,0.6-1.1C29.8,36.1,29.5,35.9,29.1,35.9z M33.6,38.7
	L33.6,38.7c-1-0.4-1.6-1.4-1.3-2.4c0.3-1,1.3-1.6,2.3-1.3c0.8,0.2,1.4,0.9,1.4,1.8c0,1-0.8,1.9-1.8,1.9L33.6,38.7z M34.1,35.9
	c-0.5,0-0.9,0.4-0.9,0.9c0,0.5,0.4,0.9,0.9,0.9h0.2c0.4-0.1,0.7-0.5,0.7-0.9C35,36.3,34.6,35.9,34.1,35.9
	C34.1,35.8,34.1,35.8,34.1,35.9L34.1,35.9z M38.6,38.7L38.6,38.7c-1-0.4-1.6-1.4-1.3-2.4c0.3-1,1.3-1.6,2.3-1.3
	c0.8,0.2,1.3,0.9,1.4,1.8c0,1-0.8,1.9-1.8,1.9L38.6,38.7z M39.1,35.9c-0.5,0-0.9,0.4-0.9,0.9c0,0.5,0.4,0.9,0.9,0.9c0,0,0,0,0,0h0.2
	c0.5-0.1,0.8-0.6,0.7-1.1C39.9,36.2,39.5,35.9,39.1,35.9z M24.1,38.6c-1,0-1.9-0.8-1.9-1.9c0-0.8,0.6-1.6,1.4-1.8v-0.1h0.5
	c1,0,1.9,0.8,1.9,1.9C26,37.7,25.1,38.6,24.1,38.6C24.1,38.6,24.1,38.6,24.1,38.6L24.1,38.6z M24.1,35.8c-0.5,0-0.8,0.4-0.8,0.9
	c0,0.5,0.4,0.8,0.9,0.8c0.5,0,0.8-0.4,0.8-0.9c0-0.4-0.4-0.7-0.8-0.8H24.1z M39.1,34.4c-1.1,0-2-0.8-2-1.9c0-1.1,0.8-2,1.9-2
	c1.1,0,2,0.8,2,1.9c0,0.9-0.5,1.7-1.4,1.9v0.1L39.1,34.4z M38.9,33.4h0.2c0.4,0,0.8-0.4,0.7-0.9c0-0.4-0.4-0.8-0.9-0.7
	s-0.8,0.4-0.7,0.9C38.2,33.1,38.5,33.4,38.9,33.4z M34.1,34.4c-1.1,0-1.9-0.8-1.9-1.9c0-1.1,0.8-1.9,1.9-1.9c1.1,0,1.9,0.8,1.9,1.9
	c0,0.9-0.6,1.6-1.4,1.9v0.1H34.1z M34,33.4L34,33.4c0.6,0,0.9-0.4,0.9-0.9c0-0.5-0.4-0.8-0.9-0.8c-0.5,0-0.8,0.4-0.8,0.9
	C33.2,33.1,33.6,33.4,34,33.4z M29.1,34.4c-1,0-1.9-0.9-1.8-1.9c0-1,0.9-1.9,1.9-1.8c1,0,1.8,0.8,1.8,1.8
	C31,33.5,30.2,34.4,29.1,34.4C29.1,34.4,29.1,34.4,29.1,34.4L29.1,34.4z M29.1,31.7c-0.5,0-0.9,0.4-0.9,0.9s0.4,0.9,0.9,0.9
	c0.5,0,0.9-0.4,0.9-0.9l0,0C30,32.1,29.6,31.7,29.1,31.7C29.1,31.6,29.1,31.6,29.1,31.7L29.1,31.7z M24.1,34.4c-1,0-1.9-0.8-1.9-1.9
	c0-0.8,0.6-1.6,1.4-1.8v-0.1h0.5c1,0,1.9,0.8,1.9,1.9C26,33.5,25.1,34.4,24.1,34.4L24.1,34.4z M24.1,31.6c-0.5,0-0.8,0.4-0.8,0.9
	c0,0.5,0.4,0.8,0.9,0.8s0.8-0.4,0.8-0.9c0-0.4-0.4-0.7-0.8-0.8H24.1z M39.1,29.8c-1.1,0-2-0.8-2-1.9c0-1.1,0.8-2,1.9-2
	c1.1,0,2,0.8,2,1.9c0,0.9-0.5,1.7-1.4,1.9v0.1L39.1,29.8z M38.9,28.8h0.2c0.4,0,0.8-0.4,0.7-0.9c0-0.4-0.4-0.8-0.9-0.7
	s-0.8,0.4-0.7,0.9C38.2,28.5,38.5,28.8,38.9,28.8z M34.1,29.8c-1.1,0-1.9-0.8-1.9-1.9c0-1.1,0.8-1.9,1.9-1.9c1.1,0,1.9,0.8,1.9,1.9
	c0,0.9-0.6,1.6-1.4,1.9v0.1H34.1z M34,28.8h0.1c0.5,0,0.8-0.4,0.8-0.9c0-0.5-0.4-0.8-0.9-0.8s-0.8,0.4-0.8,0.9
	C33.2,28.5,33.6,28.8,34,28.8z M29.1,29.8c-1,0-1.9-0.9-1.8-1.9c0-1,0.9-1.9,1.9-1.8c1,0,1.8,0.8,1.8,1.8
	C31,28.9,30.2,29.8,29.1,29.8L29.1,29.8z M29.1,27.1c-0.5,0-0.9,0.4-0.9,0.9s0.4,0.9,0.9,0.9c0.5,0,0.9-0.4,0.9-0.9v0
	C30,27.5,29.6,27,29.1,27.1C29.1,27,29.1,27,29.1,27.1L29.1,27.1z M24.1,29.8c-1,0-1.9-0.8-1.9-1.9c0-0.8,0.6-1.6,1.4-1.8V26h0.5
	c1,0,1.9,0.8,1.9,1.9C26,28.9,25.1,29.8,24.1,29.8L24.1,29.8z M24.1,27c-0.5,0-0.8,0.4-0.8,0.9c0,0.5,0.4,0.8,0.9,0.8
	s0.8-0.4,0.8-0.9c0-0.4-0.4-0.7-0.8-0.8H24.1z M28.6,24.9L28.6,24.9c-1-0.4-1.5-1.4-1.2-2.4c0.3-1,1.3-1.5,2.3-1.2s1.5,1.3,1.2,2.3
	c-0.2,0.8-1,1.3-1.8,1.3L28.6,24.9z M29.1,22c-0.5,0-0.9,0.4-0.9,0.9c0,0.5,0.4,0.9,0.9,0.9h0.2c0.5-0.1,0.8-0.6,0.7-1.1
	C29.9,22.3,29.5,22,29.1,22z M33.6,24.8L33.6,24.8c-1-0.4-1.5-1.4-1.2-2.4c0.3-1,1.3-1.5,2.3-1.2s1.5,1.3,1.2,2.3
	c-0.2,0.8-1,1.3-1.8,1.3H33.6z M34.1,22c-0.5,0-0.9,0.4-0.9,0.9c0,0.5,0.4,0.9,0.9,0.9h0.2c0.5-0.1,0.8-0.6,0.7-1.1
	C34.8,22.3,34.5,22,34.1,22z M38.6,24.8L38.6,24.8c-1-0.4-1.6-1.4-1.3-2.4c0.3-1,1.3-1.6,2.3-1.3c1,0.3,1.6,1.3,1.3,2.3
	c-0.2,0.8-1,1.4-1.8,1.4L38.6,24.8z M39.1,22c-0.5,0-0.9,0.4-0.9,0.9c0,0.5,0.4,0.9,0.9,0.9h0.1c0.5-0.1,0.8-0.6,0.7-1.1
	C39.8,22.3,39.5,22,39.1,22z M24.1,24.7c-1,0-1.9-0.9-1.8-1.9c0-1,0.9-1.9,1.9-1.8c1,0,1.9,0.9,1.8,1.9c0,0,0,0,0,0
	C26,23.9,25.2,24.8,24.1,24.7C24.1,24.8,24.1,24.8,24.1,24.7L24.1,24.7z M24.1,21.9c-0.5,0-0.9,0.4-0.9,0.9s0.4,0.9,0.9,0.9
	c0.5,0,0.9-0.4,0.9-0.9v0C24.9,22.4,24.6,22,24.1,21.9L24.1,21.9z M39.1,20.2c-1.1,0-2-0.8-2-1.9c0-1.1,0.8-2,1.9-2s2,0.8,2,1.9
	c0,0.9-0.5,1.7-1.4,1.9v0.1L39.1,20.2z M39,19.2h0.1c0.4,0,0.8-0.4,0.7-0.9c0-0.4-0.4-0.8-0.9-0.7s-0.8,0.4-0.7,0.9
	C38.2,18.8,38.6,19.1,39,19.2z M34.1,20.2c-1.1,0-1.9-0.8-1.9-1.9c0-1.1,0.8-1.9,1.9-1.9c1.1,0,1.9,0.8,1.9,1.9
	c0,0.9-0.6,1.6-1.4,1.9v0.1H34.1z M34,19.2L34,19.2c0.6,0,0.9-0.4,0.9-0.9c0-0.5-0.4-0.8-0.9-0.8c-0.5,0-0.8,0.4-0.8,0.9
	C33.2,18.8,33.6,19.1,34,19.2z M29.1,20.2c-1,0-1.9-0.9-1.8-1.9s0.9-1.9,1.9-1.8c1,0,1.9,0.9,1.8,1.9C31,19.3,30.2,20.2,29.1,20.2
	C29.1,20.2,29.1,20.2,29.1,20.2L29.1,20.2z M29.1,17.4c-0.5,0-0.9,0.4-0.9,0.9s0.4,0.9,0.9,0.9c0.5,0,0.9-0.4,0.9-0.9v0
	C30,17.8,29.6,17.4,29.1,17.4L29.1,17.4z M24.1,20.1c-1,0-1.9-0.9-1.8-1.9s0.9-1.9,1.9-1.8c1,0,1.9,0.9,1.8,1.9
	C26,19.3,25.2,20.2,24.1,20.1C24.1,20.2,24.1,20.2,24.1,20.1L24.1,20.1z M24.1,17.4c-0.5,0-0.9,0.4-0.9,0.9s0.4,0.9,0.9,0.9
	c0.5,0,0.9-0.4,0.9-0.9v0C25,17.8,24.6,17.4,24.1,17.4L24.1,17.4z"/>
</svg>
