<?xml version="1.0" encoding="utf-8"?>
<!-- Generator: Adobe Illustrator 21.1.0, SVG Export Plug-In . SVG Version: 6.00 Build 0)  -->
<svg version="1.1" id="Capa_1" xmlns="http://www.w3.org/2000/svg" xmlns:xlink="http://www.w3.org/1999/xlink" x="0px" y="0px"
	 viewBox="0 0 63.1 63.1" style="enable-background:new 0 0 63.1 63.1;" xml:space="preserve">
<style type="text/css">
	.st0{fill:#BCBCBC;}
</style>
<title>icono_t</title>
<path class="st0" d="M31.6,0C14.2,0,0,14.2,0,31.6s14.2,31.6,31.6,31.6S63.1,49,63.1,31.6S49,0,31.6,0z M31.6,60.3
	c-15.8,0-28.7-12.9-28.7-28.7S15.7,2.9,31.6,2.9s28.7,12.9,28.7,28.7S47.4,60.3,31.6,60.3z"/>
<path class="st0" d="M44.5,12.5H18.6c-1.9,0-3.5,1.6-3.5,3.5s1.6,3.5,3.5,3.5h8c0.6,0,1,0.5,1,1v32.1c0,1.9,1.6,3.5,3.5,3.5H32
	c1.9,0,3.5-1.6,3.5-3.5V20.5c0-0.6,0.5-1,1-1h8c1.9,0,3.5-1.6,3.5-3.5S46.4,12.5,44.5,12.5z M33,20.5v32.1c0,0.6-0.5,1-1,1h-0.9
	c-0.6,0-1-0.5-1-1V20.5c0-1.9-1.6-3.5-3.5-3.5h-8c-0.6,0-1-0.5-1-1s0.5-1,1-1h25.9c0.6,0,1,0.5,1,1s-0.5,1-1,1h-8
	C34.5,17,33,18.6,33,20.5z"/>
</svg>
