<?xml version="1.0" encoding="utf-8"?>
<!-- Generator: Adobe Illustrator 21.1.0, SVG Export Plug-In . SVG Version: 6.00 Build 0)  -->
<svg version="1.1" id="Capa_1" xmlns="http://www.w3.org/2000/svg" xmlns:xlink="http://www.w3.org/1999/xlink" x="0px" y="0px"
	 viewBox="0 0 63.1 63.1" style="enable-background:new 0 0 63.1 63.1;" xml:space="preserve">
<style type="text/css">
	.st0{fill:#C0B9BD;}
</style>
<title>icono_pila</title>
<path class="st0" d="M31.6,0C31.6,0,31.6,0,31.6,0C14.2,0,0,14.2,0,31.6C0,49,14.2,63.1,31.6,63.1h0C49,63.1,63.1,49,63.1,31.6
	C63.1,14.2,49,0,31.6,0z M31.6,2.9c15.8,0,28.6,12.9,28.7,28.7c0,15.8-12.8,28.6-28.6,28.7c0,0,0,0,0,0c-7.6,0-14.8-3-20.3-8.4
	c-5.4-5.4-8.4-12.6-8.4-20.3c0-7.7,3-14.8,8.4-20.3C16.7,5.9,23.9,2.9,31.6,2.9z"/>
<path class="st0" d="M42.2,9.8c-1-0.5-2.2-0.6-3.2-0.2c-1.1,0.4-1.9,1.1-2.4,2.2L18.9,47.9c-0.9,2.2,0.2,4.6,2.3,5.5
	c0.5,0.2,1.1,0.3,1.6,0.3c1.5,0,2.9-0.8,3.6-2.1l17.7-36.2C45.2,13.3,44.3,10.8,42.2,9.8z M42,14L24.2,50.4
	c-0.4,0.8-1.4,1.1-2.2,0.7c-0.8-0.4-1.1-1.3-0.7-2.1l17.7-36.1c0.3-0.6,0.9-0.9,1.5-0.9c0.2,0,0.5,0.1,0.7,0.2
	C41.8,12.4,42.2,13.3,42,14z"/>
</svg>
